# xmcd
#
# Track frame offsets:
#	150
#	22351
#	64624
#	86770
#	125175
#	139950
#	165150
#	188700
#	205807
#	235200
#	258600
#	286500
#
# Disc length: 4265
#
# Revision: 2
# Processed by: cddbd v1.5.1PL0 Copyright (c) Steve Scherf et al.
# Submitted via: CDCOPY 4.744
# Normalized: r1:TDELIM( - )
#
DISCID=ae10a70c
DTITLE=Various Artist - New Age And Sounds vol 127 - Between two worlds
DYEAR=1900
DGENRE=
TTITLE0=Banducci e Barbirato - Armonia nell'universo
TTITLE1=Syeve Gordon - Where the earth meets the sky
TTITLE2=Gaia Project - Oasis
TTITLE3=Kangaroo Moon - Between two worlds
TTITLE4=Peter Huttlinger - Monaghan jig
TTITLE5=Acoustic Dub Messengers - Musik liebe und daisy
TTITLE6=Dust - Dead cowboys
TTITLE7=Jean Francois Maljean - Vue sur mer
TTITLE8=Mahanta Das - Awakening
TTITLE9=Giuseppe Manca - Soli nella notte
TTITLE10=Night Hawks - Back home
TTITLE11=Raul Orellana ft J Bonell - Entre dos aguas
EXTD=
EXTT0=
EXTT1=
EXTT2=
EXTT3=
EXTT4=
EXTT5=
EXTT6=
EXTT7=
EXTT8=
EXTT9=
EXTT10=
EXTT11=
PLAYORDER=
